<svg version="1.1" xmlns="http://www.w3.org/2000/svg" xmlns:xlink="http://www.w3.org/1999/xlink" x="0px" y="0px" width="169px" height="382px" viewBox="0 0 169 382" enable-background="new 0 0 169 382" xml:space="preserve" id="toon-aaron">
<g id="Layer_97" display="">
	<path d="M26.008,61.291L37,50.588V42h108v8.592l10.992,10.688c-0.174,56.482-11.672,91.952-21.334,111.795
		c-1.904,3.911-3.906,7.556-5.987,10.925c-0.612,0.991-1.231,1.952-1.858,2.893c-0.065,0.1-0.131,0.201-0.198,0.301
		c-0.638,0.953-1.282,1.883-1.933,2.786c-2.455,3.402-4.998,6.442-7.608,9.094c-0.695,0.707-1.396,1.38-2.103,2.029
		c-0.086,0.08-0.172,0.16-0.258,0.237c-0.711,0.649-1.426,1.274-2.146,1.867C105.604,208.945,98.279,212,91,212
		c-7.256,0-14.558-3.037-21.502-8.74c-0.724-0.595-1.444-1.221-2.16-1.873c-0.084-0.076-0.168-0.154-0.252-0.232
		c-0.704-0.646-1.404-1.316-2.099-2.021c-2.627-2.661-5.186-5.717-7.654-9.139c-0.656-0.909-1.306-1.846-1.948-2.806
		c-0.062-0.092-0.124-0.187-0.185-0.279c-0.63-0.947-1.254-1.915-1.871-2.912c-2.082-3.369-4.083-7.015-5.987-10.925
		C37.68,153.232,26.183,117.766,26.008,61.291z M108.729,233.073L120.125,245H105c-1.248,0-2.366,0.773-2.807,1.941l-21.89,58
		c-0.489,1.294-0.028,2.756,1.115,3.536L92.434,316H47.52c-0.807-3.314-3.301-5.975-6.52-7.013v-3.974l13.071,3.862
		c0.283,0.084,0.569,0.124,0.85,0.124c1.217,0,2.353-0.746,2.805-1.938l21.984-58c0.35-0.922,0.224-1.957-0.336-2.768
		S77.891,245,76.905,245H61.937l11.398-11.927c0.83-0.869,1.062-2.148,0.589-3.253c-0.472-1.104-1.557-1.82-2.758-1.82H54.367
		l11.995-19.611C74.223,214.661,82.589,218,91,218c8.434,0,16.82-3.355,24.7-9.66L127.701,228h-16.805
		c-1.201,0-2.287,0.716-2.758,1.82C107.666,230.925,107.898,232.204,108.729,233.073z M19,231.25
		c0-26.234,5.016-40.675,31.081-41.224c3.686,5.558,7.614,10.354,11.714,14.33l-15.339,25.078c-0.566,0.926-0.588,2.086-0.058,3.032
		c0.53,0.947,1.532,1.534,2.617,1.534H64.15l-11.398,11.927c-0.83,0.869-1.062,2.148-0.589,3.253c0.472,1.104,1.557,1.82,2.758,1.82
		H72.56l-19.458,51.334L41,298.758V280v-36c0-1.657-1.343-3-3-3s-3,1.343-3,3v36H19V231.25z M34.729,324.338
		c-0.918,3.521-4.096,5.979-7.729,5.979c-3.914,0-7.315-2.809-8-6.564V304v-6v-12h16v12v6v5v6h3c1.064,0,2.025,0.367,2.715,1l0,0
		c0.333,0.306,0.604,0.673,0.791,1.093c0.017,0.037,0.023,0.079,0.038,0.117c0.071,0.177,0.137,0.357,0.178,0.55
		c0.049,0.236,0.076,0.484,0.076,0.743c0,2.091-1.699,3.498-3.846,3.498c-0.003,0-0.006,0-0.009,0l-2.595-0.091l-0.297,1.164l0,0
		L34.729,324.338z M73,368H33.252c0.382-3.138,1.49-6.441,4.218-8.289c2.948-1.997,7.626-2.194,13.723-0.617
		c0.364,0.188,0.771,0.305,1.204,0.329c1.799,0.519,3.712,1.181,5.733,1.989c1.539,0.616,3.284-0.133,3.899-1.672
		c0.615-1.539-0.133-3.284-1.672-3.899c-1.685-0.674-3.311-1.257-4.878-1.751c-0.059-0.756-0.149-1.493-0.258-2.214
		c1.235,0.38,2.488,0.82,3.76,1.341c0.372,0.152,0.757,0.226,1.135,0.226c1.182,0,2.302-0.703,2.777-1.865
		c0.628-1.533-0.106-3.285-1.64-3.913c-2.662-1.089-5.27-1.899-7.822-2.455c-0.938-2.42-2.071-4.511-3.165-6.209h17.748
		c0.45,7.633,2.984,11.842,4.984,14.162V368H73z M144.468,359.711c2.728,1.847,3.835,5.151,4.218,8.289H109v-14.838
		c2.307-2.319,4.473-6.529,4.923-14.162h17.748c-1.094,1.698-2.228,3.79-3.165,6.209c-2.552,0.555-5.16,1.365-7.822,2.455
		c-1.533,0.627-2.268,2.379-1.64,3.913c0.476,1.162,1.597,1.865,2.776,1.865c0.379,0,0.765-0.072,1.136-0.226
		c1.272-0.521,2.524-0.961,3.76-1.341c-0.108,0.721-0.2,1.458-0.258,2.214c-1.567,0.494-3.192,1.078-4.878,1.751
		c-1.539,0.615-2.287,2.361-1.672,3.899s2.361,2.288,3.898,1.672c2.021-0.809,3.936-1.471,5.733-1.989
		c0.433-0.024,0.84-0.141,1.204-0.329C136.842,357.518,141.52,357.715,144.468,359.711z M135.393,322.975
		c-2.871,2.746-5.021,6.173-6.633,10.025h-17.752c-1.656,0-3,1.343-3,3c0,2.886-0.25,5.199-0.642,7.05l0,0
		c-4.037-8.061-10.103-13.588-16.366-13.588c-6.287,0-12.373,5.567-16.409,13.674v0.001c-0.402-1.864-0.66-4.206-0.66-7.137
		c0-1.657-1.343-3-3-3H53.24c-1.612-3.854-3.762-7.28-6.632-10.025c0.171-0.314,0.325-0.64,0.461-0.975h54.147l3.938,2.689
		c0.508,0.347,1.1,0.521,1.691,0.521c0.512,0,1.025-0.131,1.487-0.395l4.935-2.817h21.662
		C135.066,322.334,135.221,322.66,135.393,322.975 M141,308.987c-3.218,1.038-5.713,3.697-6.52,7.013h-10.703L141,306.167V308.987z
		 M163,304v19.751c-0.686,3.756-4.086,6.564-8,6.564c-3.633,0-6.811-2.458-7.729-5.979l-0.33-1.262l0,0l-0.289-1.112L144,322.234
		c-2.094,0-3.798-1.583-3.798-3.678c0-0.261,0.026-0.512,0.077-0.752c0.05-0.236,0.123-0.461,0.218-0.674
		c0.001-0.002,0.001-0.005,0.002-0.008c0.19-0.43,0.468-0.809,0.81-1.122l0,0c0.688-0.631,1.641-1,2.69-1h3v-6v-5v-2h16L163,304
		L163,304z M163,296h-16v-52c0-1.657-1.343-3-3-3s-3,1.343-3,3v52v3.258L111.676,316l0,0l-4.688,2.676L86.75,304.854L107.074,251
		h20.066c1.201,0,2.286-0.716,2.758-1.82c0.473-1.104,0.24-2.384-0.588-3.253L117.913,234h15.135c1.085,0,2.085-0.586,2.616-1.532
		s0.51-2.104-0.057-3.03L120.264,204.3c4.079-3.964,7.987-8.743,11.657-14.276c12.296,0.251,20.229,3.5,24.869,10.186
		c4.295,6.19,6.21,15.765,6.21,31.04V296L163,296z"/>
	<g>
		<path display="inline" fill="#725A4A" d="M140.202,318.557c0,2.095,1.704,3.678,3.798,3.678l2.652-0.271l0.619,2.375
			c0.918,3.521,4.096,5.979,7.729,5.979c3.914,0,7.314-2.809,8-6.564V302h-16v13h-3C141.906,315,140.202,316.462,140.202,318.557z"
			/>
		<path display="inline" fill="#725A4A" d="M38,315h-3v-29H19v37.751c0.685,3.756,4.086,6.564,8,6.564
			c3.633,0,6.811-2.458,7.729-5.979l0.62-2.429L37.943,322c0.003,0,0.006,0,0.009,0c2.147,0,3.846-1.406,3.846-3.498
			C41.798,316.408,40.094,315,38,315z"/>
	</g>
	<path fill="#999999" stroke="#000000" stroke-width="6" stroke-linejoin="round" stroke-miterlimit="10" d="M130.368,186.708
		c-5.14,0-12.892,1.291-20.163,2.788c2.932,3.949,4.668,8.838,4.668,14.135c0,13.105-10.625,23.73-23.732,23.73
		c-13.106,0-23.731-10.625-23.731-23.73c0-5.273,1.723-10.145,4.633-14.084c-7.342-1.519-15.211-2.839-20.409-2.839
		C39.38,186.708,16,194.667,16,223c0,23.9,0,41,0,41h11v55h64h64v-55h11c0,0,0-17.1,0-41
		C166,194.667,142.62,186.708,130.368,186.708z"/>
	<circle fill="#725A4A" stroke="#000000" stroke-width="6" stroke-miterlimit="10" cx="91.141" cy="203.631" r="23.732"/>
	<path d="M130.368,184h-14.341l-9.865-0.086c-1.069,0.027-2.1,0.572-2.637,1.521c-0.537,0.948-0.519,2.113,0.05,3.042L127.701,228
		h-16.805c-1.201,0-2.287,0.716-2.758,1.82c-0.473,1.104-0.24,2.384,0.588,3.253L120.125,245H105c-1.248,0-2.366,0.773-2.807,1.941
		l-21.89,58c-0.489,1.294-0.028,2.756,1.115,3.536l23.736,16.213c0.508,0.347,1.1,0.521,1.691,0.521
		c0.512,0,1.025-0.131,1.487-0.395L141,306.167v2.82c-3.939,1.27-6.798,4.972-6.798,9.328c0,4.784,3.448,8.779,7.989,9.631
		c2.201,5.02,7.195,8.369,12.809,8.369c6.92,0,12.923-5.099,13.965-11.858l0.029-23.395c0-0.021,0.006-0.041,0.006-0.062v-69.75
		C169,202.079,162.538,184,130.368,184z M163,304v19.751c-0.686,3.756-4.086,6.564-8,6.564c-3.633,0-6.811-2.458-7.729-5.979
		l-0.619-2.375L144,322.234c-2.094,0-3.798-1.583-3.798-3.678c0-2.094,1.704-3.557,3.798-3.557h3v-6v-5v-2h16V304z M163,296h-16v-52
		c0-1.657-1.343-3-3-3s-3,1.343-3,3v52v3.258l-34.012,19.418L86.75,304.854L107.074,251h20.066c1.201,0,2.286-0.716,2.758-1.82
		c0.473-1.104,0.24-2.384-0.588-3.253L117.913,234h15.135c1.085,0,2.085-0.586,2.616-1.532s0.51-2.104-0.057-3.03l-24.098-39.477
		L130.368,190c13.194,0,21.59,3.244,26.422,10.21c4.295,6.19,6.21,15.765,6.21,31.04V296z"/>
	<path fill="#1A1A1A" d="M167.122,209.82c-3.276-14.705-11.576-23.861-30.229-25.532c-0.436-0.075-0.867-0.141-1.299-0.201
		c1.539-2.658,3.029-5.449,4.459-8.386c9.602-19.719,20.965-54.353,21.881-108.645L162,67.121v-7.15
		C162,24.689,132.741,0.033,91.083,0h-0.042C91.027,0,91.014,0,91,0h-0.104C49.211,0.03,20,24.687,20,59.971v7.17l0.066-0.065
		c0.919,54.282,12.28,88.91,21.881,108.626c1.43,2.937,2.92,5.728,4.459,8.386c-0.431,0.06-0.863,0.125-1.299,0.201
		c-18.653,1.671-26.952,10.827-30.229,25.533C13.686,213.709,13,218.081,13,223v8.25V264v16v17c-1.657,0-3,1.343-3,3s1.343,3,3,3v21
		l0.035,0.457c1.042,6.76,7.045,11.858,13.965,11.858c5.614,0,10.607-3.351,12.808-8.369c0.867-0.163,1.693-0.441,2.464-0.816
		c1.709,1.571,3.174,3.518,4.402,5.87H44.14c-1.229,0-2.333,0.749-2.787,1.89c-0.455,1.143-0.167,2.445,0.725,3.289
		c0.042,0.04,2.377,2.296,4.441,6.179c-1.33-0.03-2.643,0.007-3.929,0.139c-1.648,0.17-2.847,1.644-2.677,3.292
		c0.17,1.647,1.637,2.849,3.292,2.677c1.826-0.188,3.724-0.172,5.685,0.045c0.164,0.66,0.314,1.333,0.428,2.035
		c-6.297-1.091-11.373-0.359-15.151,2.199c-4.406,2.982-6.815,8.277-7.008,15.334C27.064,370.37,27,370.676,27,371v8
		c0,1.657,1.343,3,3,3h46c1.657,0,3-1.343,3-3v-8v-15.002c0.172,0.007,0.447,0.002,0.562-0.003c0.127,0.001,0.438,0.001,0.438,0.002
		v-0.017c2-0.224,3.061-2.312,3.062-2.978c0.004-2.171-2.062-2.774-3.062-2.945V350h-0.879c-0.188,0-0.471-0.079-0.802-0.259
		c3.173-8.531,8.645-14.279,12.681-14.279c2.928,0,6.73,3.124,9.688,7.959c1.183,1.934,2.179,4.069,3.004,6.315
		c-0.336,0.185-0.621,0.264-0.812,0.264H102v0.058c-1,0.171-3.064,0.774-3.062,2.945c0.002,0.665,1.062,2.754,3.062,2.978v0.017
		c0-0.001,0.312-0.001,0.438-0.002c0.117,0.005,0.392,0.01,0.562,0.003V371v8c0,1.657,1.343,3,3,3h46c1.657,0,3-1.343,3-3v-8
		c0-0.324-0.064-0.63-0.159-0.922c-0.192-7.059-2.603-12.352-7.008-15.334c-3.778-2.56-8.851-3.291-15.146-2.199
		c0.115-0.702,0.267-1.375,0.433-2.036c1.957-0.216,3.853-0.231,5.675-0.043c1.646,0.166,3.122-1.028,3.292-2.677
		s-1.028-3.122-2.677-3.292c-1.279-0.131-2.584-0.168-3.907-0.14c2.06-3.87,4.381-6.141,4.419-6.178
		c0.893-0.844,1.18-2.146,0.725-3.289c-0.453-1.141-1.559-1.89-2.787-1.89h-2.533c1.229-2.354,2.693-4.299,4.402-5.87
		c0.771,0.375,1.598,0.654,2.463,0.816c2.201,5.02,7.195,8.369,12.809,8.369c6.92,0,12.923-5.099,13.965-11.858l0.029-23.396
		c0-0.021,0.006-0.041,0.006-0.062v-37v-32.75V223C169,218.081,168.314,213.709,167.122,209.82z"/>
</g>
<path id="shadow" display="none" fill="#1A1A1A" d="M157.122,209.82c-3.276-14.705-11.576-23.861-30.229-25.532
	c-0.436-0.075-0.867-0.141-1.299-0.201c1.539-2.658,3.029-5.449,4.459-8.386c9.602-19.719,20.965-54.353,21.881-108.645L152,67.121
	v-7.15C152,24.689,122.741,0.033,81.083,0h-0.042C81.028,0,81.013,0,81,0h-0.104C39.211,0.03,10,24.687,10,59.971v7.17l0.066-0.065
	c0.919,54.282,12.28,88.91,21.881,108.626c1.43,2.937,2.92,5.728,4.459,8.386c-0.431,0.06-0.863,0.125-1.299,0.201
	c-18.653,1.671-26.952,10.827-30.229,25.533C3.686,213.709,3,218.081,3,223v8.25V264v16v17c-1.657,0-3,1.343-3,3s1.343,3,3,3v21
	l0.035,0.457c1.042,6.76,7.045,11.858,13.965,11.858c5.614,0,10.607-3.351,12.808-8.369c0.867-0.163,1.693-0.441,2.464-0.816
	c1.709,1.571,3.174,3.518,4.402,5.87H34.14c-1.229,0-2.333,0.749-2.787,1.89c-0.455,1.143-0.167,2.445,0.725,3.289
	c0.042,0.04,2.377,2.296,4.441,6.179c-1.33-0.03-2.643,0.007-3.929,0.139c-1.648,0.17-2.847,1.644-2.677,3.292
	c0.17,1.647,1.637,2.849,3.292,2.677c1.826-0.188,3.724-0.172,5.685,0.045c0.164,0.66,0.314,1.333,0.428,2.035
	c-6.297-1.091-11.373-0.359-15.151,2.199c-4.406,2.982-6.815,8.277-7.008,15.334C17.064,370.37,17,370.676,17,371v8
	c0,1.657,1.343,3,3,3h46c1.657,0,3-1.343,3-3v-8v-15.002c0.172,0.007,0.447,0.002,0.562-0.003c0.127,0.001,0.438,0.001,0.438,0.002
	v-0.017c2-0.224,3.061-2.312,3.062-2.978c0.004-2.171-2.062-2.774-3.062-2.945V350h-0.879c-0.188,0-0.471-0.079-0.802-0.259
	c3.173-8.531,8.645-14.279,12.681-14.279c2.928,0,6.73,3.124,9.688,7.959c1.183,1.934,2.179,4.069,3.004,6.315
	C93.354,349.92,93.068,350,92.879,350H92v0.058c-1,0.171-3.064,0.774-3.062,2.945c0.002,0.665,1.062,2.754,3.062,2.978v0.017
	c0-0.001,0.312-0.001,0.438-0.002c0.117,0.005,0.392,0.01,0.562,0.003V371v8c0,1.657,1.343,3,3,3h46c1.657,0,3-1.343,3-3v-8
	c0-0.324-0.064-0.63-0.159-0.922c-0.192-7.059-2.603-12.352-7.008-15.334c-3.778-2.56-8.851-3.291-15.146-2.199
	c0.114-0.702,0.267-1.375,0.433-2.036c1.957-0.216,3.853-0.231,5.675-0.043c1.646,0.166,3.122-1.028,3.292-2.677
	s-1.028-3.122-2.677-3.292c-1.279-0.131-2.584-0.168-3.907-0.14c2.06-3.87,4.381-6.141,4.419-6.178
	c0.893-0.844,1.18-2.146,0.725-3.289c-0.453-1.141-1.559-1.89-2.787-1.89h-2.533c1.229-2.354,2.693-4.299,4.402-5.87
	c0.771,0.375,1.598,0.654,2.463,0.816c2.201,5.02,7.195,8.369,12.809,8.369c6.92,0,12.923-5.099,13.965-11.858l0.029-23.396
	c0-0.021,0.006-0.041,0.006-0.062v-37v-32.75V223C159,218.081,158.314,213.709,157.122,209.82z"/>
<path id="outline" d="M135.542,184.179c1.558-2.685,3.065-5.507,4.511-8.477c9.602-19.719,20.965-54.353,21.881-108.645L162,67.121
	v-7.15C162,24.689,132.741,0.033,91.083,0h-0.042C91.027,0,91.014,0,91,0h-0.104C49.211,0.03,20,24.687,20,59.971v7.17l0.066-0.065
	c0.919,54.282,12.28,88.91,21.881,108.626c1.446,2.97,2.954,5.792,4.511,8.477C18.768,186.076,13,203.719,13,231.25V280v21v23
	l0.035,0.457c1.042,6.76,7.045,11.858,13.965,11.858c5.614,0,10.607-3.351,12.808-8.369c0.861-0.161,1.681-0.438,2.447-0.808
	c1.712,1.572,3.189,3.504,4.419,5.861h-2.595c-1.229,0-2.333,0.749-2.787,1.89c-0.455,1.143-0.167,2.445,0.725,3.289
	c0.038,0.037,2.36,2.308,4.418,6.178c-1.322-0.028-2.627,0.009-3.906,0.14c-1.648,0.17-2.847,1.644-2.677,3.292
	c0.17,1.646,1.645,2.842,3.292,2.677c1.823-0.188,3.718-0.173,5.675,0.043c0.166,0.661,0.317,1.334,0.433,2.036
	c-6.296-1.092-11.368-0.359-15.146,2.199c-4.406,2.982-6.784,8.277-6.978,15.334C27.034,370.37,27,370.676,27,371v8
	c0,1.657,1.282,3,2.938,3h46c1.657,0,3.062-1.343,3.062-3v-8v-15.002c0,0.007,0.446,0.002,0.562-0.003
	c0.127,0.001,0.438,0.001,0.438,0.002v-0.017c2-0.224,3.061-2.312,3.062-2.978c0.004-2.171-2.062-2.774-3.062-2.945V350h-0.94
	c-0.179,0-0.442-0.074-0.75-0.233c3.171-8.545,8.65-14.305,12.69-14.305c2.928,0,6.73,3.124,9.688,7.959
	c1.183,1.934,2.179,4.069,3.004,6.315c-0.336,0.184-0.621,0.264-0.812,0.264H102v0.058c-1,0.171-3.064,0.774-3.062,2.945
	c0.002,0.665,1.062,2.754,3.062,2.978v0.017c0-0.001,0.312-0.001,0.438-0.002c0.117,0.005,0.392,0.01,0.562,0.003V371v8
	c0,1.657,1.343,3,3,3h46c1.657,0,3-1.343,3-3v-8c0-0.324-0.064-0.63-0.159-0.922c-0.192-7.059-2.603-12.352-7.008-15.334
	c-3.778-2.56-8.851-3.291-15.146-2.199c0.115-0.702,0.267-1.375,0.433-2.036c1.957-0.216,3.853-0.231,5.675-0.043
	c1.646,0.166,3.122-1.028,3.292-2.677s-1.028-3.122-2.677-3.292c-1.279-0.131-2.584-0.168-3.907-0.14
	c2.06-3.87,4.381-6.141,4.419-6.178c0.893-0.844,1.18-2.146,0.725-3.289c-0.453-1.141-1.559-1.89-2.787-1.89h-2.533
	c1.229-2.357,2.707-4.289,4.419-5.861c0.767,0.371,1.586,0.646,2.446,0.809c2.201,5.02,7.195,8.369,12.809,8.369
	c6.92,0,12.923-5.099,13.965-11.858l0.029-23.395c0-0.021,0.006-0.041,0.006-0.062v-69.75
	C169,203.719,163.232,186.076,135.542,184.179z M26.008,61.291L37,50.588V42h108v8.592l10.992,10.688
	c-0.174,56.482-11.672,91.952-21.334,111.795c-1.904,3.911-3.906,7.556-5.987,10.925c-0.612,0.991-1.231,1.952-1.858,2.893
	c-0.065,0.1-0.131,0.201-0.198,0.301c-0.638,0.953-1.282,1.883-1.933,2.786c-2.455,3.402-4.998,6.442-7.608,9.094
	c-0.695,0.707-1.396,1.38-2.103,2.029c-0.086,0.08-0.172,0.16-0.258,0.237c-0.711,0.649-1.426,1.274-2.146,1.867
	C105.604,208.945,98.279,212,91,212c-7.256,0-14.558-3.037-21.502-8.74c-0.724-0.595-1.444-1.221-2.16-1.873
	c-0.084-0.076-0.168-0.154-0.252-0.232c-0.704-0.646-1.404-1.316-2.099-2.021c-2.627-2.661-5.186-5.717-7.654-9.139
	c-0.656-0.909-1.306-1.846-1.948-2.806c-0.062-0.092-0.124-0.187-0.185-0.279c-0.63-0.947-1.254-1.915-1.871-2.912
	c-2.082-3.369-4.083-7.015-5.987-10.925C37.68,153.232,26.183,117.766,26.008,61.291z M109.91,212.381L109.91,212.381
	c-3.309,7.064-10.467,11.98-18.77,11.98c-8.21,0-15.3-4.809-18.656-11.746C78.506,216.146,84.74,218,91,218
	C97.396,218,103.768,216.064,109.91,212.381z M19,231.25c0-26.234,5.016-40.675,31.081-41.224
	c3.686,5.558,7.614,10.354,11.714,14.33l-15.339,25.078c-0.566,0.926-0.588,2.086-0.058,3.032c0.53,0.947,1.532,1.534,2.617,1.534
	H64.15l-11.398,11.927c-0.83,0.869-1.062,2.148-0.589,3.253c0.472,1.104,1.557,1.82,2.758,1.82H72.56l-19.458,51.334L41,298.758V280
	v-36c0-1.657-1.343-3-3-3s-3,1.343-3,3v36H19V231.25z M37.952,322c-0.003,0-0.006,0-0.009,0l-2.595-0.091l-0.297,1.164l-0.323,1.265
	c-0.918,3.521-4.096,5.979-7.729,5.979c-3.914,0-7.315-2.809-8-6.564V304v-6v-12h16v12v6v5v6h3c1.064,0,2.025,0.367,2.715,1
	c0.333,0.306,0.604,0.673,0.791,1.093c0.017,0.037,0.023,0.079,0.038,0.117c0.071,0.177,0.137,0.357,0.178,0.55
	c0.049,0.236,0.076,0.484,0.076,0.743C41.798,320.594,40.099,322,37.952,322z M41,308.987v-3.974l13.071,3.862
	c0.283,0.084,0.569,0.124,0.85,0.124c1.217,0,2.353-0.746,2.805-1.938l21.984-58c0.35-0.922,0.224-1.957-0.336-2.768
	S77.891,245,76.905,245H61.937l11.398-11.927c0.83-0.869,1.062-2.148,0.589-3.253c-0.472-1.104-1.557-1.82-2.758-1.82H54.367
	l10.868-17.77c2.946,11.558,13.443,20.131,25.906,20.131c12.385,0,22.824-8.465,25.848-19.91L127.701,228h-16.805
	c-1.201,0-2.287,0.716-2.758,1.82c-0.473,1.104-0.24,2.384,0.588,3.253L120.125,245H105c-1.248,0-2.366,0.773-2.807,1.941l-21.89,58
	c-0.489,1.294-0.028,2.756,1.115,3.536L92.434,316H47.52C46.713,312.686,44.218,310.025,41,308.987z M73,368H33.252
	c0.382-3.138,1.49-6.441,4.218-8.289c2.948-1.997,7.626-2.194,13.723-0.617c0.364,0.188,0.771,0.305,1.204,0.329
	c1.799,0.519,3.712,1.181,5.733,1.989c1.539,0.616,3.284-0.133,3.899-1.672c0.615-1.539-0.133-3.284-1.672-3.899
	c-1.685-0.674-3.311-1.257-4.878-1.751c-0.059-0.756-0.149-1.493-0.258-2.214c1.235,0.38,2.488,0.82,3.76,1.341
	c0.372,0.152,0.757,0.226,1.135,0.226c1.182,0,2.302-0.703,2.777-1.865c0.628-1.533-0.106-3.285-1.64-3.913
	c-2.662-1.089-5.27-1.899-7.822-2.455c-0.938-2.42-2.071-4.511-3.165-6.209h17.748c0.45,7.633,2.984,11.842,4.984,14.162V368H73z
	 M144.468,359.711c2.728,1.847,3.835,5.151,4.218,8.289H109v-14.838c2.307-2.319,4.473-6.529,4.923-14.162h17.748
	c-1.094,1.698-2.228,3.79-3.165,6.209c-2.552,0.555-5.16,1.365-7.822,2.455c-1.533,0.627-2.268,2.379-1.64,3.913
	c0.476,1.162,1.597,1.865,2.776,1.865c0.379,0,0.765-0.072,1.136-0.226c1.272-0.521,2.524-0.961,3.76-1.341
	c-0.108,0.721-0.2,1.458-0.258,2.214c-1.567,0.494-3.192,1.078-4.878,1.751c-1.539,0.615-2.287,2.361-1.672,3.899
	s2.361,2.288,3.898,1.672c2.021-0.809,3.936-1.471,5.733-1.989c0.433-0.024,0.84-0.141,1.204-0.329
	C136.842,357.518,141.52,357.715,144.468,359.711z M128.76,333h-17.752c-1.656,0-3,1.343-3,3c0,2.886-0.25,5.199-0.642,7.05l0,0
	c-4.037-8.061-10.103-13.588-16.366-13.588c-6.287,0-12.373,5.567-16.409,13.674v0.001c-0.402-1.864-0.66-4.206-0.66-7.137
	c0-1.657-1.343-3-3-3H53.24c-1.612-3.854-3.762-7.28-6.632-10.025c0.171-0.314,0.325-0.64,0.461-0.975h54.147l3.938,2.689
	c0.508,0.347,1.1,0.521,1.691,0.521c0.512,0,1.025-0.131,1.487-0.395l4.935-2.817h21.662c0.137,0.334,0.291,0.66,0.461,0.975
	C132.521,325.72,130.372,329.146,128.76,333z M134.48,316h-10.703L141,306.167v2.82C137.782,310.025,135.287,312.686,134.48,316z
	 M163,304v19.751c-0.686,3.756-4.086,6.564-8,6.564c-3.633,0-6.811-2.458-7.729-5.979l-0.33-1.262l-0.289-1.112L144,322.234
	c-2.094,0-3.798-1.583-3.798-3.678c0-0.261,0.026-0.512,0.077-0.752c0.05-0.236,0.123-0.461,0.218-0.674
	c0.001-0.002,0.001-0.005,0.002-0.008c0.19-0.43,0.468-0.809,0.81-1.122c0.688-0.631,1.641-1,2.69-1h3v-6v-5v-2h16L163,304L163,304z
	 M163,296h-16v-52c0-1.657-1.343-3-3-3s-3,1.343-3,3v52v3.258L111.676,316l-4.688,2.676L86.75,304.854L107.074,251h20.066
	c1.201,0,2.286-0.716,2.758-1.82c0.473-1.104,0.24-2.384-0.588-3.253L117.913,234h15.135c1.085,0,2.085-0.586,2.616-1.532
	s0.51-2.104-0.057-3.03L120.264,204.3c4.079-3.964,7.987-8.743,11.657-14.276c12.296,0.251,20.229,3.5,24.869,10.186
	c4.295,6.19,6.21,15.765,6.21,31.04V296L163,296z"/>
<g id="shoe-sole">
	<rect x="109" y="374" fill="#FFFFFF" width="40" height="2"/>
	<rect x="33" y="374" fill="#FFFFFF" width="40" height="2"/>
</g>
<g id="shoe-upper">
	<path fill="#D62929" d="M73,368H33.252c0.382-3.138,1.49-6.441,4.218-8.289c2.948-1.997,7.626-2.194,13.723-0.617
		c0.364,0.188,0.771,0.305,1.204,0.329c1.799,0.519,3.712,1.181,5.733,1.989c1.539,0.616,3.284-0.133,3.899-1.672
		c0.615-1.539-0.133-3.284-1.672-3.899c-1.685-0.674-3.311-1.257-4.878-1.751c-0.059-0.756-0.149-1.493-0.258-2.214
		c1.235,0.38,2.488,0.82,3.76,1.341c0.372,0.152,0.757,0.226,1.135,0.226c1.182,0,2.302-0.703,2.777-1.865
		c0.628-1.533-0.106-3.285-1.64-3.913c-2.662-1.089-5.27-1.899-7.822-2.455c-0.704-1.813-1.515-3.445-2.339-4.86
		c-0.275-0.474-0.552-0.924-0.826-1.349h17.748c0.45,7.633,2.984,11.842,4.984,14.162V368H73z"/>
	<path fill="#D62929" d="M109,368h39.686c-0.381-3.138-1.49-6.441-4.217-8.289c-2.947-1.997-7.626-2.194-13.723-0.617
		c-0.364,0.188-0.771,0.305-1.204,0.329c-1.799,0.519-3.712,1.181-5.733,1.989c-1.539,0.616-3.283-0.133-3.898-1.672
		s0.133-3.284,1.672-3.899c1.686-0.674,3.311-1.257,4.878-1.751c0.06-0.756,0.149-1.493,0.258-2.214
		c-1.235,0.38-2.487,0.82-3.76,1.341c-0.372,0.152-0.757,0.226-1.135,0.226c-1.183,0-2.304-0.703-2.777-1.865
		c-0.628-1.533,0.106-3.285,1.64-3.913c2.662-1.089,5.271-1.899,7.822-2.455c0.704-1.813,1.516-3.445,2.34-4.86
		c0.274-0.474,0.551-0.924,0.825-1.349h-17.748c-0.45,7.633-2.616,11.842-4.923,14.162V368H109z"/>
</g>
<path id="pants" fill="#7EAABC" d="M135.393,322.975c-2.871,2.746-5.021,6.173-6.633,10.025h-17.752c-1.656,0-3,1.343-3,3
	c0,2.886-0.25,5.199-0.642,7.05l0,0c-4.037-8.061-10.103-13.588-16.366-13.588c-6.287,0-12.373,5.567-16.409,13.674v0.001
	c-0.402-1.864-0.66-4.206-0.66-7.137c0-1.657-1.343-3-3-3H53.24c-1.612-3.854-3.762-7.28-6.632-10.025
	c0.171-0.314,0.325-0.64,0.461-0.975h54.147l3.938,2.689c0.508,0.347,1.1,0.521,1.691,0.521c0.512,0,1.025-0.131,1.487-0.395
	l4.935-2.817h21.662C135.066,322.334,135.221,322.66,135.393,322.975"/>
<g id="shirt">
	<path fill="#999999" d="M41,308.987v-3.974l13.071,3.862c0.283,0.084,0.569,0.124,0.85,0.124c1.217,0,2.353-0.746,2.805-1.938
		l21.984-58c0.35-0.922,0.224-1.957-0.336-2.768S77.891,245,76.905,245H61.937l11.398-11.927c0.83-0.869,1.062-2.148,0.589-3.253
		c-0.472-1.104-1.557-1.82-2.758-1.82H54.367l10.868-17.77c2.946,11.558,13.443,20.131,25.906,20.131
		c12.385,0,22.824-8.465,25.848-19.91L127.701,228h-16.805c-1.201,0-2.287,0.716-2.758,1.82c-0.473,1.104-0.24,2.384,0.588,3.253
		L120.125,245H105c-1.248,0-2.366,0.773-2.807,1.941l-21.89,58c-0.489,1.294-0.028,2.756,1.115,3.536L92.434,316H47.52
		C46.713,312.686,44.218,310.025,41,308.987z"/>
	<path fill="#999999" d="M134.48,316h-10.703L141,306.167v2.82C137.782,310.025,135.287,312.686,134.48,316z"/>
</g>
<g id="jacket">
	<path fill="#333333" d="M163,296h-16v-52c0-1.657-1.343-3-3-3s-3,1.343-3,3v52v3.258L111.676,316l0,0l-4.688,2.676L86.75,304.854
		L107.074,251h20.066c1.201,0,2.286-0.716,2.758-1.82c0.473-1.104,0.24-2.384-0.588-3.253L117.913,234h15.135
		c1.085,0,2.085-0.586,2.616-1.532s0.51-2.104-0.057-3.03L120.264,204.3c4.079-3.964,7.987-8.743,11.657-14.276
		c12.296,0.251,20.229,3.5,24.869,10.186c4.295,6.19,6.21,15.765,6.21,31.04V296L163,296z"/>
	<g>
		<path fill="#333333" d="M35,244c0-1.657,1.343-3,3-3s3,1.343,3,3v36v18.758l12.102,3.576L72.56,251H54.921
			c-1.201,0-2.286-0.716-2.758-1.82c-0.472-1.104-0.24-2.384,0.589-3.253L64.15,234H49.015c-1.085,0-2.086-0.586-2.617-1.533
			c-0.531-0.947-0.509-2.105,0.058-3.031l15.339-25.08c-4.101-3.975-8.028-8.771-11.714-14.329c-0.398,0.008-0.807,0.02-1.211,0.03
			C23.853,191.022,19,205.423,19,231.25V280h16V244z"/>
	</g>
</g>
<g id="skin">
	<path fill="#725A4A" d="M140.202,318.557c0,2.095,1.704,3.678,3.798,3.678l2.652-0.271l0.619,2.375
		c0.918,3.521,4.096,5.979,7.729,5.979c3.914,0,7.314-2.809,8-6.564V302h-16v13h-3C141.906,315,140.202,316.462,140.202,318.557z"/>
	<path fill="#725A4A" d="M38,315h-3v-29H19v37.751c0.685,3.756,4.086,6.564,8,6.564c3.633,0,6.811-2.458,7.729-5.979l0.62-2.429
		L37.943,322c0.003,0,0.006,0,0.009,0c2.147,0,3.846-1.406,3.846-3.498C41.798,316.408,40.094,315,38,315z"/>
	<path fill="#725A4A" d="M145,50.592V42H37v8.588L26.008,61.291c0.153,49.414,8.973,82.745,17.649,103.598
		c0.014,0.033,0.028,0.064,0.042,0.098c0.296,0.71,0.592,1.408,0.887,2.089c0.021,0.05,0.043,0.096,0.064,0.146
		c0.286,0.66,0.573,1.309,0.858,1.942c0.113,0.25,0.225,0.487,0.337,0.733c0.195,0.426,0.39,0.856,0.584,1.269
		c0.306,0.652,0.609,1.289,0.912,1.91C59.387,197.812,75.3,212,91,212s31.613-14.188,43.658-38.925
		c0.303-0.623,0.607-1.26,0.914-1.914c0.119-0.253,0.238-0.519,0.357-0.777c0.188-0.407,0.375-0.809,0.563-1.227
		c0.19-0.421,0.381-0.859,0.571-1.293c0.119-0.268,0.235-0.527,0.354-0.799c0.236-0.544,0.473-1.106,0.709-1.669
		c0.073-0.174,0.146-0.342,0.219-0.518c0.275-0.66,0.549-1.337,0.824-2.022c0.035-0.086,0.07-0.169,0.104-0.256
		c0.3-0.751,0.599-1.518,0.897-2.299c0.011-0.025,0.024-0.05,0.034-0.076C148.234,139.203,156,107.212,156,61.374
		c0-0.032,0-0.063,0-0.095L145,50.592z"/>
	<path fill="#725A4A" d="M109.91,212.381L109.91,212.381c-3.309,7.064-10.467,11.98-18.77,11.98c-8.21,0-15.3-4.809-18.656-11.746
		C78.506,216.146,84.74,218,91,218C97.396,218,103.768,216.064,109.91,212.381z"/>
</g>
<g id="face-black">
	<path d="M123.9,163.794c-0.41-0.937-1.271-1.6-2.282-1.758c-0.625-0.098-15.504-2.402-30.759-2.402
		c-15.255,0-30.133,2.304-30.759,2.402c-1.011,0.159-1.872,0.821-2.283,1.758c-0.411,0.937-0.316,2.019,0.251,2.871
		c0.473,0.709,11.829,17.369,32.79,17.369c20.961,0,32.317-16.66,32.791-17.369C124.217,165.813,124.312,164.731,123.9,163.794z
		 M90.859,178.034c-11.759,0-20.129-6.436-24.445-10.791c5.681-0.685,15.09-1.609,24.445-1.609c9.367,0,18.787,0.927,24.467,1.612
		C111.032,171.601,102.686,178.034,90.859,178.034z"/>
	<path d="M98.488,139c-1.656,0-3-1.343-3-3c0-4.385,3.6-7.953,8.023-7.953c1.656,0,3,1.343,3,3c0,1.657-1.344,3-3,3
		c-1.115,0-2.023,0.876-2.023,1.953C101.488,137.657,100.146,139,98.488,139z"/>
	<path d="M83.23,139c-1.657,0-3-1.343-3-3c0-1.077-0.907-1.953-2.022-1.953c-1.657,0-3-1.343-3-3c0-1.657,1.343-3,3-3
		c4.423,0,8.022,3.568,8.022,7.953C86.23,137.657,84.887,139,83.23,139z"/>
	<path d="M119.359,92.5c-6.342,0-11.5,4.5-11.5,11.5h3h3h0.02c0.201-4,2.579-5,5.48-5c2.9,0,5.279,1,5.479,5h0.021h3h3
		C130.859,97,125.701,92.5,119.359,92.5z"/>
	<path d="M62.359,92.5c-6.341,0-11.5,4.5-11.5,11.5h3h3h0.02c0.201-4,2.579-5,5.48-5s5.279,1,5.48,5h0.02h3h3
		C73.859,97,68.701,92.5,62.359,92.5z"/>
</g>
<g id="gold">
	<path fill="#CEAF30" d="M41,297h-3.148c-1.193-4.703-5.45-8.195-10.518-8.195c-5.069,0-9.326,3.493-10.519,8.195H13
		c-1.657,0-3,1.343-3,3s1.343,3,3,3h3.997c1.411,4.364,5.509,7.53,10.336,7.53s8.924-3.167,10.335-7.53H41c1.657,0,3-1.343,3-3
		S42.657,297,41,297z M27.333,304.529c-2.687,0-4.864-2.178-4.864-4.862s2.178-4.862,4.864-4.862c2.685,0,4.863,2.178,4.863,4.862
		S30.019,304.529,27.333,304.529z"/>
	<circle fill="#CEAF30" cx="62.333" cy="257.667" r="2.372"/>
	<circle fill="#CEAF30" cx="59.333" cy="265.667" r="2.372"/>
	<path fill="#CEAF30" d="M98.867,303.045c-0.352,0-0.71-0.062-1.059-0.193c-1.551-0.586-2.334-2.316-1.748-3.867l14.041-37.2
		c0.584-1.552,2.314-2.334,3.865-1.748c1.551,0.585,2.333,2.315,1.748,3.866l-14.04,37.201
		C101.221,302.305,100.08,303.045,98.867,303.045z"/>
</g>
<g id="face-white">
	<path fill="#FFFFFF" d="M62.359,99c-2.901,0-5.279,1-5.48,5H67.84C67.639,100,65.261,99,62.359,99z"/>
	<path fill="#FFFFFF" d="M66.414,167.243c4.316,4.355,12.686,10.791,24.445,10.791c11.826,0,20.172-6.434,24.467-10.789
		c-5.68-0.685-15.1-1.612-24.467-1.612C81.504,165.634,72.095,166.559,66.414,167.243z"/>
	<path fill="#FFFFFF" d="M119.359,99c-2.901,0-5.279,1-5.48,5h10.961C124.639,100,122.262,99,119.359,99z"/>
	<circle fill="#FFFFFF" cx="27.333" cy="299.667" r="4.862"/>
</g>
</svg>
